<?xml version="1.0" encoding="utf-8"?>
<!-- Generator: Adobe Illustrator 25.2.3, SVG Export Plug-In . SVG Version: 6.00 Build 0)  -->
<svg version="1.1" id="Capa_1" xmlns="http://www.w3.org/2000/svg" xmlns:xlink="http://www.w3.org/1999/xlink" x="0px" y="0px"
	 viewBox="0 0 24 24" style="enable-background:new 0 0 24 24;" xml:space="preserve">
<style type="text/css">
	.st0{fill:#F3C43E;}
</style>
<path class="st0" d="M5.2,15.1l2-12.7C7.2,2.2,7.4,2,7.6,2C7.8,2,8,2.1,8.1,2.2l2.1,4L5.2,15.1z M19.2,18.1L17.4,6.5
	c0-0.2-0.1-0.3-0.3-0.4s-0.3,0-0.5,0.1L4.8,18.1l6.6,3.7c0.4,0.2,0.9,0.2,1.3,0L19.2,18.1z M13.9,8l-1.5-2.9
	c-0.1-0.1-0.2-0.2-0.4-0.2s-0.3,0.1-0.4,0.2L4.9,17L13.9,8z"/>
</svg>
