<?xml version="1.0" encoding="utf-8"?>
<!-- Generator: Adobe Illustrator 25.2.3, SVG Export Plug-In . SVG Version: 6.00 Build 0)  -->
<svg version="1.1" id="Capa_1" xmlns="http://www.w3.org/2000/svg" xmlns:xlink="http://www.w3.org/1999/xlink" x="0px" y="0px"
	 viewBox="0 0 256 256" style="enable-background:new 0 0 256 256;" xml:space="preserve">
<style type="text/css">
	.st0{fill:#EEEEEE;}
</style>
<desc>Created with Fabric.js 1.7.22</desc>
<g transform="translate(128 128) scale(0.72 0.72)">
	<g transform="translate(-175.05 -175.05000000000004) scale(3.89 3.89)">
		<path class="st0" d="M45,0C20.1,0,0,20.5,0,45.7C0,67,14.4,84.9,33.8,90c0-5.3,0-11.8,0-13.8c-13,2.9-15.7-5.6-15.7-5.6
			c-2.1-5.5-5.2-6.9-5.2-6.9c-4.2-2.9,0.3-2.9,0.3-2.9c4.7,0.3,7.2,4.9,7.2,4.9c4.2,7.2,10.9,5.2,13.6,3.9c0.4-3.1,1.6-5.2,3-6.3
			C26.5,62.1,15.6,58,15.6,39.9c0-5.2,1.8-9.4,4.8-12.7c-0.5-1.2-2.1-6,0.5-12.6c0,0,3.9-1.3,12.8,4.9c3.7-1.1,7.7-1.6,11.7-1.6
			c4,0,8,0.5,11.7,1.6c8.9-6.1,12.8-4.9,12.8-4.9c2.5,6.5,0.9,11.4,0.5,12.6c3,3.3,4.8,7.6,4.8,12.7c0,18.2-10.9,22.2-21.3,23.4
			c1.7,1.5,3.2,4.4,3.2,8.8c0,3.5,0,11.6,0,17.7c19-5.3,33-23,33-44.1C90,20.5,69.9,0,45,0z"/>
	</g>
</g>
</svg>
