<?xml version="1.0" encoding="utf-8"?>
<!-- Generator: Adobe Illustrator 25.2.3, SVG Export Plug-In . SVG Version: 6.00 Build 0)  -->
<svg version="1.1" id="Capa_1" xmlns="http://www.w3.org/2000/svg" xmlns:xlink="http://www.w3.org/1999/xlink" x="0px" y="0px"
	 viewBox="0 0 256 256" style="enable-background:new 0 0 256 256;" xml:space="preserve">
<style type="text/css">
	.st0{fill:#EEEEEE;}
</style>
<desc>Created with Fabric.js 1.7.22</desc>
<g transform="translate(128 128) scale(0.72 0.72)">
	<g transform="translate(-175.05 -175.05000000000004) scale(3.89 3.89)">
		<path class="st0" d="M80.6,11.6H9.4c-5.2,0-9.4,4.2-9.4,9.4v47.9c0,5.2,4.2,9.4,9.4,9.4h71.1c5.2,0,9.4-4.2,9.4-9.4V21.1
			C90,15.9,85.8,11.6,80.6,11.6z M80.6,16.6c0.2,0,0.4,0,0.6,0.1L45,49.8L8.9,16.6c0.2,0,0.4-0.1,0.6-0.1
			C9.4,16.6,80.6,16.6,80.6,16.6z M85.1,68.9c0,2.5-2,4.5-4.5,4.5H9.4c-2.5,0-4.5-2-4.5-4.5V21.1c0-0.4,0.1-0.8,0.2-1.2L32.5,45
			L15.2,60.8c-1,0.9-1.1,2.5-0.2,3.5c0.5,0.5,1.2,0.8,1.8,0.8c0.6,0,1.2-0.2,1.7-0.7l17.6-16.1l7.2,6.6c0.5,0.4,1.1,0.7,1.7,0.7
			s1.2-0.2,1.7-0.7l7.2-6.6l17.6,16.1c0.5,0.4,1.1,0.7,1.7,0.7c0.7,0,1.3-0.3,1.8-0.8c0.9-1,0.9-2.6-0.2-3.5L57.5,45l27.4-25.1
			c0.1,0.4,0.2,0.8,0.2,1.2V68.9z"/>
	</g>
</g>
</svg>
