<?xml version="1.0" encoding="utf-8"?>
<!-- Generator: Adobe Illustrator 25.2.3, SVG Export Plug-In . SVG Version: 6.00 Build 0)  -->
<svg version="1.1" id="Capa_1" xmlns="http://www.w3.org/2000/svg" xmlns:xlink="http://www.w3.org/1999/xlink" x="0px" y="0px"
	 viewBox="0 0 256 256" style="enable-background:new 0 0 256 256;" xml:space="preserve">
<style type="text/css">
	.st0{fill:#EEEEEE;}
</style>
<desc>Created with Fabric.js 1.7.22</desc>
<g transform="translate(128 128) scale(0.72 0.72)">
	<g transform="translate(-175.05 -175.05000000000004) scale(3.89 3.89)">
		<path class="st0" d="M1.2,90c-0.3,0-0.5-0.1-0.7-0.3c-0.3-0.3-0.3-0.6-0.3-1l6.1-22.2c-3.8-6.7-5.7-14.2-5.7-21.9c0,0,0,0,0,0
			C0.6,20,20.6,0,45.2,0c11.9,0,23.1,4.7,31.6,13.1c8.4,8.4,13.1,19.6,13.1,31.6c0,24.6-20,44.6-44.6,44.6c-7.3,0-14.6-1.8-21-5.2
			L1.4,90C1.4,90,1.3,90,1.2,90z M2.6,44.6C2.6,44.6,2.6,44.6,2.6,44.6c0,7.5,2,14.9,5.7,21.3c0.1,0.2,0.2,0.5,0.1,0.8L2.6,87.6
			L24.1,82c0.2-0.1,0.5,0,0.7,0.1c6.2,3.4,13.3,5.2,20.4,5.2c23.5,0,42.6-19.1,42.6-42.6c0-11.4-4.4-22.1-12.5-30.1
			C67.3,6.4,56.6,2,45.2,2C21.7,2,2.6,21.1,2.6,44.6z M45.2,81.9c-6.7,0-13.3-1.8-19-5.2l-1-0.6l-13.3,3.5c-0.3,0.1-0.7,0-1-0.3
			c-0.3-0.3-0.3-0.6-0.3-1l3.5-12.9l-0.6-1c-3.7-5.9-5.7-12.8-5.7-19.8c0-20.5,16.7-37.2,37.3-37.2c9.9,0,19.3,3.9,26.3,10.9
			c7,7,10.9,16.4,10.9,26.3c0,4.6-0.8,9-2.4,13.2c-0.2,0.5-0.8,0.8-1.3,0.6c-0.5-0.2-0.8-0.8-0.6-1.3c1.5-4,2.3-8.2,2.3-12.5
			c0-9.4-3.7-18.3-10.3-24.9C63.5,13,54.6,9.4,45.2,9.4C25.8,9.4,9.9,25.2,9.9,44.6c0,6.7,1.9,13.1,5.4,18.8l0.9,1.4
			c0.1,0.2,0.2,0.5,0.1,0.8l-3.2,11.7l12-3.2c0.3-0.1,0.5,0,0.8,0.1l1.3,0.8c5.4,3.2,11.6,4.9,17.9,4.9c7.9,0,15.3-2.5,21.5-7.4
			c0.4-0.3,1.1-0.3,1.4,0.2s0.3,1.1-0.2,1.4C61.4,79.2,53.5,81.9,45.2,81.9z M72.6,69.3c-0.2,0-0.5-0.1-0.7-0.2
			c-0.4-0.4-0.5-1-0.1-1.4c1.2-1.3,2.2-2.8,3.2-4.2c0.3-0.5,0.9-0.6,1.4-0.3c0.5,0.3,0.6,0.9,0.3,1.4c-1,1.6-2.1,3.1-3.3,4.5
			C73.2,69.2,72.9,69.3,72.6,69.3z"/>
		<path class="st0" d="M56.9,66.6c-1.9,0-4.9-0.5-11.2-3c-6.8-2.7-13.5-8.5-18.8-16.5c-0.1-0.1-0.2-0.3-0.2-0.3
			C25.3,44.9,22,40,22,34.9c0-5.4,2.7-8.3,3.9-9.5l0.2-0.2c1.4-1.5,3-1.7,3.6-1.7h0.1c0.7,0,1.4,0,2,0c1.1,0,2.3,0.3,3.3,2.5
			c0,0,0,0,0,0c0.6,1.3,1.5,3.5,2.2,5.4c0.5,1.2,1,2.4,1.1,2.6c0.2,0.4,0.7,1.5,0.1,2.8l-0.2,0.3c-0.3,0.6-0.5,1.1-1.1,1.7
			c-0.2,0.2-0.4,0.4-0.5,0.7c-0.4,0.5-0.8,1-1.1,1.3c-0.6,0.6-0.6,0.6-0.3,1c0.8,1.3,2.8,4.6,5.9,7.3c3.4,3,6.2,4.2,7.8,4.9
			c0.3,0.1,0.6,0.3,0.8,0.4c0.8,0.4,0.9,0.3,1.2,0c0.7-0.8,2.7-3.2,3.4-4.2c1.2-1.8,2.7-1.3,3.6-0.9c1.1,0.4,6.8,3.2,7.6,3.6
			l0.6,0.3c0.9,0.4,1.5,0.7,1.9,1.4c0.6,0.9,0.3,3.6-0.6,6c-1.1,3-6,5.6-8.2,5.8c-0.2,0-0.4,0-0.6,0.1
			C58.2,66.5,57.6,66.6,56.9,66.6z M30,25.5c0,0-0.1,0-0.1,0h-0.1c-0.3,0-1.3,0.1-2.2,1l-0.2,0.2c-1.1,1.2-3.3,3.6-3.3,8.2
			c0,4.5,3,9,4.2,10.7c0.1,0.1,0.1,0.2,0.3,0.4c5.1,7.6,11.5,13.2,17.9,15.7c8.1,3.2,10.3,2.9,12,2.7c0.2,0,0.4,0,0.6-0.1
			c1.6-0.1,5.7-2.4,6.5-4.5c0.8-2.4,0.8-4.1,0.7-4.4c-0.1,0-0.6-0.3-1-0.5l-0.6-0.3c-1.4-0.7-6.5-3.2-7.3-3.5
			c-0.9-0.3-1-0.3-1.3,0.2c-0.8,1.2-3,3.8-3.5,4.4c-1.2,1.4-2.6,1-3.6,0.5c-0.2-0.1-0.4-0.2-0.7-0.3c-1.5-0.7-4.7-2-8.3-5.3
			c-3.2-2.9-5.5-6.4-6.3-7.8c-1-1.8,0.1-2.9,0.6-3.4c0.3-0.3,0.7-0.7,1-1.2c0.2-0.2,0.4-0.5,0.6-0.7c0.4-0.4,0.5-0.8,0.8-1.3
			l0.2-0.3c0.2-0.3,0.1-0.6-0.1-1c-0.1-0.3-0.5-1.1-1.2-2.8c-0.7-1.8-1.7-4.1-2.2-5.4c0,0,0,0,0,0c-0.6-1.2-0.9-1.2-1.6-1.3
			C31.2,25.5,30.6,25.5,30,25.5z"/>
	</g>
</g>
</svg>
