<svg width="14" height="14" viewBox="0 0 14 14" fill="none" xmlns="http://www.w3.org/2000/svg">
<path d="M9.49147 4.45786L7.94551 5.0823L6.60054 5.81658L6.22426 5.93945C6.12843 6.05221 6.02795 6.16641 5.91927 6.28204C5.80009 6.40923 5.68908 6.52488 5.60376 6.6087C5.50912 6.70122 5.36889 6.87467 5.29762 6.9845C5.19127 7.14928 5.10714 7.32418 5.07092 7.45862C5.00664 7.70146 5.03821 7.94718 5.16207 8.17413C5.32099 8.46321 5.63766 8.75807 6.00691 8.95899C6.19505 9.06164 6.51172 9.19316 6.75009 9.26687C7.14622 9.39118 7.91278 9.52561 8.33461 9.54586C8.4199 9.5502 8.53443 9.5502 8.53909 9.54586C8.54845 9.53861 8.61389 9.38397 8.68986 9.19173C8.94927 8.53693 9.13623 7.92261 9.23789 7.39792C9.29865 7.07994 9.34655 6.65641 9.37809 6.15486C9.38629 6.01465 9.38978 5.54488 9.38277 5.38586C9.37224 5.12569 9.35355 4.91467 9.32436 4.70796C9.31968 4.6776 9.31849 4.65013 9.32084 4.64869C9.3255 4.64436 9.33952 4.63858 9.53 4.57063L9.49145 4.4579V4.45787H9.49147V4.45786ZM9.13858 4.71372C9.1526 4.71372 9.18998 5.15746 9.19933 5.4379C9.20167 5.49715 9.20049 5.53618 9.19816 5.53618C9.18882 5.53618 9.00068 5.39888 8.86632 5.29481C8.74946 5.20374 8.52745 5.0216 8.49239 4.98692C8.48068 4.9768 8.48185 4.97536 8.57768 4.93488C8.74009 4.86693 9.12573 4.71372 9.13858 4.71372V4.71372ZM8.35099 5.03461C8.36151 5.03461 8.38837 5.05338 8.45264 5.10254C8.69335 5.289 9.02056 5.5145 9.16078 5.58968C9.204 5.6128 9.20866 5.60411 9.10936 5.68796C8.89668 5.86719 8.63141 6.04353 8.30656 6.22132C8.24931 6.25312 8.20141 6.27769 8.20024 6.27769C8.19792 6.27769 8.2049 6.24157 8.21424 6.1982C8.29254 5.83826 8.33695 5.47402 8.3393 5.18203C8.34046 5.03748 8.34046 5.03748 8.35099 5.03317C8.34864 5.03461 8.3498 5.03461 8.35099 5.03461V5.03461ZM8.18857 5.11121C8.19556 5.11987 8.19089 5.44367 8.18154 5.53183C8.16051 5.74287 8.12779 5.93945 8.07406 6.16062C8.0612 6.21407 8.04949 6.2589 8.04718 6.26178C8.04248 6.269 7.8824 6.07532 7.82981 6.00016C7.73866 5.87006 7.6674 5.73997 7.61481 5.61278C7.58794 5.54773 7.54588 5.42055 7.54937 5.4162C7.56807 5.4003 8.18389 5.10544 8.18857 5.11121ZM7.42433 5.48269C7.4255 5.48269 7.42666 5.48269 7.42785 5.48413C7.43017 5.48702 7.43837 5.51016 7.44538 5.53616C7.48276 5.66192 7.56688 5.84694 7.63935 5.96547C7.71881 6.09557 7.82282 6.23432 7.90927 6.32538C7.93733 6.35429 7.96302 6.38174 7.96652 6.38609C7.97354 6.39477 7.97588 6.39331 7.7854 6.48294C7.56457 6.58701 7.32384 6.69107 7.04806 6.80092C6.98218 6.82719 6.91636 6.8537 6.85061 6.88043C6.84007 6.88477 6.84359 6.87753 6.87397 6.81829C7.01068 6.55376 7.21867 6.03485 7.33553 5.6677C7.3554 5.6041 7.37526 5.54051 7.37877 5.52605C7.38345 5.5058 7.38928 5.49858 7.40447 5.48846C7.41265 5.48559 7.42084 5.48269 7.42433 5.48269V5.48269ZM7.19065 5.60266C7.19415 5.60557 7.13455 5.76021 7.07612 5.90187C6.96277 6.17505 6.83891 6.44392 6.67298 6.77059C6.64494 6.82695 6.61807 6.879 6.61456 6.88478C6.60872 6.8949 6.60637 6.892 6.58768 6.8472C6.54795 6.75035 6.51522 6.62603 6.4977 6.51184C6.48016 6.39909 6.48367 6.20252 6.50355 6.08111C6.51872 5.9915 6.51757 5.99294 6.55262 5.97125C6.70219 5.8773 7.18597 5.59688 7.19065 5.60266V5.60266ZM9.20635 5.70386V5.76456C9.20635 6.08689 9.17831 6.5292 9.1374 6.85155C9.13038 6.90791 9.12452 6.95415 9.12337 6.95561C9.12337 6.95561 9.08949 6.94406 9.04976 6.92959C8.87449 6.86164 8.68402 6.76191 8.51223 6.64485C8.39887 6.56824 8.23412 6.44247 8.2388 6.43668C8.23995 6.43525 8.28904 6.40345 8.34629 6.36586C8.57535 6.21843 8.79501 6.05943 8.98549 5.90188C9.05677 5.84261 9.16426 5.74723 9.18765 5.7212L9.20635 5.70386ZM6.30839 6.13168C6.31306 6.13168 6.31189 6.14324 6.30488 6.19528C6.30021 6.23287 6.29437 6.30226 6.29205 6.34993C6.28268 6.56098 6.31074 6.7171 6.39487 6.93101C6.41824 6.99028 6.43695 7.03943 6.43577 7.04086C6.42758 7.04954 5.65403 7.32997 5.41096 7.41235C5.33852 7.43692 5.27543 7.4586 5.27073 7.46003C5.26256 7.46294 5.26139 7.4615 5.26489 7.4369C5.29176 7.22444 5.42265 6.94691 5.60493 6.71274C5.72646 6.55664 5.82346 6.46558 5.98938 6.34848C6.10857 6.26466 6.29203 6.13893 6.30605 6.13313C6.30606 6.13168 6.30723 6.13168 6.30839 6.13168V6.13168ZM8.1313 6.53496C8.13247 6.53352 8.16051 6.55233 8.19439 6.57689C8.44446 6.75613 8.79268 6.92236 9.08947 7.00763L9.11636 7.01487L9.07896 7.04086C8.92356 7.14783 8.41291 7.41089 7.89059 7.6523C7.81462 7.68697 7.73984 7.72168 7.7258 7.7289C7.71178 7.73612 7.69892 7.74046 7.69892 7.73902C7.69892 7.73756 7.71997 7.68697 7.74683 7.62483C7.89289 7.2866 8.04014 6.87465 8.11492 6.58845C8.12429 6.56098 8.13012 6.53642 8.1313 6.53496V6.53496ZM7.94551 6.61014C7.94669 6.61161 7.93733 6.64194 7.92564 6.67662C7.82398 6.98161 7.69075 7.31408 7.52016 7.687C7.47693 7.78241 7.4407 7.85902 7.43951 7.85902C7.43837 7.85902 7.4033 7.83299 7.36123 7.80119C7.11349 7.61328 6.89382 7.38201 6.7501 7.15796L6.72906 7.12616L6.83538 7.09002C7.21633 6.96139 7.54 6.82263 7.86136 6.65207C7.90694 6.62894 7.94434 6.61014 7.94551 6.61014V6.61014ZM9.10001 7.10881C9.10001 7.10881 9.10118 7.11026 9.10001 7.10881C9.10118 7.14206 9.04158 7.43983 8.9925 7.65518C8.9516 7.83586 8.91653 7.97753 8.85228 8.22757C8.82424 8.33745 8.79971 8.42849 8.79853 8.42849C8.79736 8.42849 8.79035 8.42705 8.78334 8.42418C8.43629 8.3461 8.12546 8.23769 7.83333 8.09316C7.75152 8.05267 7.63467 7.98763 7.62766 7.98041C7.62534 7.97749 7.69545 7.93704 7.78425 7.88934C8.31594 7.60169 8.86748 7.27502 9.05677 7.13483C9.07897 7.11748 9.0965 7.10881 9.10001 7.10881V7.10881ZM6.4346 7.22157C6.43694 7.22445 6.28853 7.48897 6.08053 7.84888C6.00808 7.97464 5.92395 8.12207 5.89241 8.17699C5.86085 8.23192 5.81295 8.31865 5.78607 8.37069L5.73697 8.46465L5.68438 8.40972C5.62245 8.34611 5.51496 8.21025 5.46705 8.13508C5.36655 7.98043 5.29879 7.8171 5.27191 7.66823C5.25905 7.59883 5.25905 7.56413 5.27072 7.55981C5.28825 7.55404 5.60025 7.46296 5.8924 7.37911C6.05482 7.33287 6.24294 7.27795 6.31072 7.25771C6.3785 7.23744 6.43344 7.22157 6.4346 7.22157V7.22157ZM6.58417 7.29239L6.62155 7.34443C6.78983 7.57714 6.9616 7.74918 7.1696 7.89947C7.207 7.92551 7.23504 7.94862 7.23269 7.95009C7.22453 7.95731 6.51054 8.27094 6.17985 8.4126C5.99407 8.49354 5.84098 8.55858 5.83983 8.55858C5.83866 8.55858 5.82814 8.54993 5.81643 8.5398L5.79541 8.521L5.8293 8.46031C5.93913 8.26372 6.07704 8.04836 6.37735 7.60027L6.58417 7.29239ZM7.51667 8.11773C7.51781 8.1163 7.56923 8.1394 7.63233 8.16835C7.78426 8.23916 7.90459 8.28396 8.06586 8.33456C8.26452 8.39672 8.55197 8.45743 8.72142 8.47477C8.74713 8.47765 8.76115 8.48055 8.75647 8.48489C8.74827 8.49068 8.57652 8.5615 8.45031 8.61065C8.24931 8.68869 7.63584 8.91273 7.13572 9.09053C7.0434 9.12377 6.96394 9.15124 6.95927 9.15267C6.94759 9.15558 6.90902 9.14255 6.90902 9.13677C6.90902 9.1339 6.93706 9.08909 6.97095 9.03994C7.13921 8.79132 7.30633 8.5138 7.44538 8.25073C7.48393 8.17843 7.51667 8.11917 7.51667 8.11773ZM7.31099 8.12497C7.31215 8.12641 7.22919 8.29118 7.08431 8.57449C7.02237 8.69446 6.95342 8.83033 6.92887 8.87803C6.9055 8.92429 6.87045 8.99657 6.8506 9.03703L6.8167 9.11076L6.79918 9.10497C6.7571 9.09052 6.46147 8.96186 6.38317 8.92284C6.28618 8.87514 6.18569 8.81733 6.1109 8.76819C6.01743 8.70603 5.90058 8.61351 5.90992 8.61064C5.91225 8.6092 6.07235 8.55569 6.26514 8.49066C6.77697 8.31863 7.06091 8.21891 7.24672 8.14664C7.28062 8.13363 7.30982 8.12351 7.31099 8.12497ZM8.76581 8.54702H8.76697C8.77165 8.56149 8.58236 9.21194 8.51339 9.41718C8.49822 9.46343 8.49239 9.47502 8.4842 9.47354C8.46433 9.47212 8.18974 9.42442 8.02262 9.39406C7.73167 9.33913 7.24321 9.2336 7.12053 9.19892L7.09249 9.19171L7.26657 9.14253C7.64052 9.03846 7.82047 8.9821 8.00275 8.91272C8.23296 8.82599 8.46083 8.71758 8.69102 8.58461C8.72724 8.56436 8.75763 8.54847 8.76581 8.54702Z" fill="url(#paint0_linear)"/>
<path d="M7.89752 0.000104551C7.87181 -0.00420802 7.45698 0.180806 7.1894 0.315216C6.82833 0.497363 6.54791 0.670826 6.37496 0.82112C6.3107 0.877516 6.23006 0.977239 6.21723 1.01626C6.21255 1.03072 6.21021 1.04806 6.21021 1.0654L6.36679 1.24898L6.73953 1.39641L7.62643 1.593L8.64067 1.80837L8.6512 1.69996C8.6477 1.69996 8.64535 1.69852 8.64187 1.69852L8.50863 1.6725L8.48177 1.61324C8.34389 1.31258 8.19198 0.939652 8.10318 0.688143C8.03425 0.493004 7.96881 0.267537 7.93257 0.105639C7.91271 0.00734989 7.91038 0.00157094 7.89754 0.000131199V9.78386e-05H7.89752V0.000104551ZM7.8788 0.0738449H7.88C7.88115 0.0752713 7.88582 0.115771 7.89051 0.163442C7.91035 0.365833 7.94661 0.560939 8.00385 0.771982C8.04708 0.930987 8.04708 0.922322 7.99684 0.903518C7.87766 0.863059 7.34366 0.748866 6.95688 0.682377C6.89495 0.672252 6.84236 0.662141 6.84236 0.660701C6.83769 0.654922 7.12163 0.471335 7.24666 0.399081C7.40674 0.307997 7.8461 0.0810636 7.8788 0.0738449V0.0738449ZM6.75237 0.721397L6.79796 0.740167C7.04567 0.844255 7.66846 0.991696 8.01202 1.02638C8.05057 1.03072 8.0833 1.03507 8.08445 1.03507C8.08562 1.03651 8.05292 1.05819 8.01084 1.08275C7.84493 1.18538 7.66264 1.31114 7.53644 1.40799C7.49906 1.43688 7.46515 1.46003 7.46049 1.46003C7.45582 1.46003 7.43129 1.45424 7.40558 1.4499L7.35884 1.44122L7.242 1.29955C7.03635 1.0524 6.87509 0.861606 6.81315 0.789318L6.75237 0.721397V0.721397ZM6.70565 0.766196L6.87041 1.0206C6.96037 1.16081 7.05151 1.29812 7.0714 1.32846C7.09124 1.35884 7.10761 1.38342 7.10645 1.38486C7.10177 1.38919 6.86809 1.33281 6.74421 1.29814C6.61684 1.26199 6.56426 1.24464 6.48598 1.2143L6.4217 1.18827V1.16802C6.42287 1.07118 6.5222 0.926641 6.69046 0.77922L6.70565 0.766196ZM8.1055 1.11311C8.11019 1.11311 8.11601 1.12611 8.13003 1.16514C8.16976 1.27354 8.29364 1.56553 8.324 1.6219C8.33337 1.64071 8.34971 1.64215 8.18497 1.6089C7.78886 1.52938 7.66147 1.50339 7.66147 1.5005C7.66147 1.49906 7.67316 1.48893 7.68835 1.47881C7.81105 1.39499 7.9349 1.28802 8.04475 1.17382C8.07163 1.14636 8.09617 1.12034 8.10083 1.11599C8.10199 1.11311 8.10434 1.11167 8.1055 1.11311Z" fill="#011C26"/>
<path d="M6.2253 0.995972C6.2253 0.995972 6.19961 1.04658 6.22414 1.12175C6.23935 1.16799 6.28374 1.22435 6.33398 1.28218C6.33398 1.28218 6.85395 1.9095 6.91706 1.99913C7.2045 2.40962 7.32953 2.81435 7.34122 3.3723C7.34823 3.73077 7.2933 4.04587 7.15659 4.41158C6.91354 5.06781 6.40057 5.79198 5.6095 6.59566L5.7252 6.54795C5.79998 6.47856 5.90164 6.40486 6.14 6.24297C6.69036 5.87002 7.30967 5.52745 8.0692 5.17477C9.16288 4.66596 10.9612 4.07042 11.9848 3.87676L12.0912 3.85651L12.0748 3.82471C11.9813 3.64546 11.917 3.53418 11.8399 3.41565C11.6156 3.07163 11.3433 2.79267 11.0103 2.5614C10.5522 2.24486 9.95979 1.99769 9.20964 1.81411C9.06825 1.77941 8.75743 1.71293 8.50504 1.66523C7.96986 1.56263 7.62398 1.49178 7.24306 1.41084C7.10636 1.38192 6.90185 1.33856 6.76631 1.30244C6.6962 1.28363 6.56183 1.24461 6.45667 1.1998C6.37254 1.15931 6.25101 1.11884 6.2253 0.995972V0.995972ZM6.52679 1.35735C6.52794 1.35592 6.54663 1.36457 6.57119 1.37469C6.61559 1.39346 6.67284 1.41515 6.74063 1.43829C6.79192 1.45574 6.84333 1.47261 6.89487 1.48888C6.96498 1.51055 7.02339 1.53079 7.02456 1.53079C7.03275 1.54092 7.15077 2.00776 7.1905 2.187C7.20567 2.25496 7.21738 2.31276 7.21621 2.31276C7.21501 2.31423 7.20217 2.28964 7.18699 2.2564C7.05027 1.95863 6.8341 1.65654 6.58403 1.41369C6.55133 1.38481 6.52679 1.35879 6.52679 1.35735ZM7.10169 1.55393C7.10753 1.55393 7.13324 1.55827 7.16477 1.56693C7.36342 1.62185 7.71982 1.70569 7.94767 1.7534C7.98623 1.76062 8.01662 1.76931 8.01662 1.77218C8.01662 1.77509 8.00259 1.78519 7.98505 1.79676C7.94651 1.82133 7.79109 1.93551 7.73969 1.97888C7.60997 2.08584 7.49314 2.20147 7.409 2.30554C7.37511 2.34747 7.34589 2.38215 7.34589 2.38215C7.34589 2.38215 7.3389 2.35759 7.33303 2.32722C7.29099 2.1263 7.20334 1.82853 7.12388 1.61895C7.11102 1.58572 7.1005 1.55536 7.1005 1.55248C7.1005 1.55537 7.1005 1.55393 7.10169 1.55393V1.55393ZM8.1136 1.79242C8.12061 1.7953 8.13229 1.84446 8.15566 1.95286C8.1989 2.16246 8.21877 2.39662 8.21176 2.61488C8.20941 2.67559 8.20708 2.73195 8.20473 2.7392L8.20123 2.75363L8.14047 2.72907C8.01544 2.67993 7.81213 2.60619 7.63803 2.5455C7.53869 2.51225 7.45809 2.4819 7.45809 2.47901C7.45809 2.47032 7.60299 2.2911 7.66491 2.22317C7.78291 2.0945 8.10307 1.78808 8.1136 1.79242V1.79242ZM8.19422 1.80686C8.19774 1.80255 8.67799 1.90515 8.8965 1.9572C9.05893 1.99622 9.29496 2.05693 9.30897 2.06417C9.31598 2.06705 9.29144 2.08439 9.21314 2.12775C8.90467 2.29977 8.67563 2.45441 8.4478 2.64234C8.3882 2.69149 8.33795 2.73195 8.33679 2.73195C8.33563 2.73195 8.33446 2.69005 8.33446 2.63945C8.33446 2.36482 8.29005 2.08729 8.20824 1.85313C8.20006 1.83 8.19305 1.80833 8.19422 1.80686V1.80686ZM9.43633 2.11042C9.43984 2.11475 9.42464 2.23185 9.41062 2.30121C9.36856 2.51659 9.25522 2.83605 9.11619 3.13669C9.09163 3.19017 9.06943 3.23354 9.06708 3.23498C9.06477 3.23642 9.03321 3.21473 8.99698 3.18871C8.86144 3.09042 8.7072 2.99792 8.53893 2.91118C8.49221 2.88662 8.4513 2.86637 8.45013 2.8635C8.44193 2.85482 8.8182 2.54694 9.01685 2.3995C9.1746 2.28098 9.43165 2.10463 9.43633 2.11042V2.11042ZM9.52513 2.12776C9.53566 2.12776 9.74832 2.20004 9.85931 2.24051C10.1339 2.3417 10.4494 2.48479 10.6551 2.60042L10.7404 2.64814L10.6808 2.66547C10.1783 2.80856 9.74832 2.97336 9.3335 3.1815C9.29961 3.19884 9.26923 3.2133 9.26692 3.2133C9.26457 3.2133 9.27625 3.18006 9.29144 3.13957C9.41648 2.81146 9.4971 2.46889 9.51695 2.1769C9.51814 2.14943 9.52162 2.12776 9.52513 2.12776V2.12776ZM7.40783 2.72907C7.41133 2.72473 7.57376 2.77244 7.66139 2.80277C7.7946 2.84904 8.07737 2.9661 8.07737 2.97479C8.07737 2.97623 8.04583 3.00948 8.00845 3.04996C7.85537 3.20751 7.70813 3.37372 7.53168 3.58476C7.47909 3.64694 7.4347 3.69752 7.43238 3.69752C7.43003 3.69752 7.42888 3.68883 7.43003 3.67727C7.4569 3.43443 7.45107 3.12222 7.41368 2.80567C7.41016 2.76519 7.40666 2.73051 7.40783 2.72907V2.72907ZM10.821 2.73342C10.8233 2.73629 10.7462 2.88662 10.6971 2.97189C10.627 3.09619 10.5242 3.26101 10.2917 3.62236C10.169 3.81314 10.0311 4.02853 9.98553 4.1008C9.93877 4.17306 9.90023 4.23376 9.89904 4.23376C9.89788 4.23376 9.88271 4.20776 9.86634 4.17596C9.73546 3.93312 9.57888 3.72064 9.39308 3.52984C9.35803 3.4937 9.31949 3.45467 9.30663 3.44311C9.29378 3.43155 9.28325 3.41998 9.28325 3.41854C9.28325 3.41422 9.48188 3.30868 9.63264 3.23353C9.89673 3.10054 10.2566 2.94155 10.5265 2.83891C10.6679 2.784 10.8187 2.73051 10.821 2.73342V2.73342ZM10.911 2.76231C10.9156 2.76087 10.9437 2.77822 10.9776 2.80277C11.2615 3.00368 11.5396 3.26243 11.7593 3.5284C11.8212 3.60357 11.9743 3.80015 11.972 3.80159C11.972 3.80159 11.9182 3.80737 11.8551 3.81314C11.3632 3.85941 10.7334 3.98804 10.1281 4.16871C10.0872 4.18026 10.051 4.19039 10.0486 4.19039C10.0463 4.19039 10.0919 4.13402 10.1491 4.0661C10.5044 3.64258 10.6668 3.37518 10.8584 2.89817C10.8853 2.82736 10.9086 2.76665 10.911 2.76231C10.9098 2.76231 10.9098 2.76231 10.911 2.76231V2.76231ZM8.30873 3.09189C8.3251 3.0962 8.47701 3.18441 8.59151 3.25521C8.69668 3.32023 8.85443 3.42433 8.86261 3.43299C8.86377 3.43443 8.80767 3.47057 8.73876 3.51249C8.51907 3.64836 8.33095 3.77699 8.13463 3.92443C8.07855 3.96636 8.03181 4.00107 8.03064 4.00107C8.02597 4.00107 8.02713 3.99526 8.05868 3.92443C8.16385 3.6874 8.24797 3.40409 8.2959 3.128C8.30055 3.10633 8.30523 3.09189 8.30873 3.09189V3.09189ZM8.15682 3.12656C8.16034 3.13091 8.12061 3.30868 8.09608 3.40553C8.04816 3.58911 7.96753 3.81893 7.88926 3.99238C7.87054 4.03284 7.8425 4.09211 7.82731 4.12535L7.79811 4.18316L7.73267 4.10513C7.65673 4.01406 7.59478 3.95769 7.51534 3.90708C7.48377 3.88687 7.45924 3.8695 7.45924 3.86663C7.45924 3.85507 7.65905 3.63103 7.81213 3.46913C7.92196 3.35205 8.15333 3.12223 8.15682 3.12656V3.12656ZM9.0858 3.59923L9.14306 3.64547C9.2739 3.75101 9.42814 3.8912 9.54618 4.01406C9.61277 4.08198 9.7413 4.2251 9.76703 4.25979L9.78103 4.2786L9.6864 4.31183C9.15122 4.49539 8.73758 4.65873 8.25498 4.87845C8.20123 4.90301 8.15566 4.92325 8.15215 4.92325C8.14516 4.92325 8.13929 4.93046 8.25967 4.79314C8.56816 4.44193 8.84157 4.05453 9.04489 3.67727L9.0858 3.59923V3.59923ZM8.84158 3.67439C8.84391 3.67727 8.68383 3.95624 8.588 4.11379C8.47349 4.30171 8.27017 4.61681 8.12995 4.82204C8.07154 4.90734 8.0213 4.97816 8.01896 4.97962C8.01544 4.98105 8.01428 4.95938 8.01428 4.92613C8.01428 4.75122 7.97806 4.56476 7.91495 4.40577C7.88808 4.33928 7.8834 4.32338 7.88926 4.31616C7.91146 4.29158 8.25149 4.05163 8.46648 3.90854C8.61138 3.81315 8.83804 3.6715 8.84158 3.67439V3.67439ZM7.36458 4.12248C7.3681 4.12248 7.39498 4.13981 7.42536 4.16006C7.50014 4.21064 7.56675 4.26701 7.62634 4.32774C7.62866 4.33062 7.5983 4.36098 7.55857 4.3971C7.44756 4.49539 7.2793 4.65295 7.18116 4.7498C7.07831 4.85098 7.07482 4.85387 7.0865 4.83219C7.16362 4.6862 7.20217 4.60381 7.24308 4.4983C7.2793 4.40436 7.31551 4.29305 7.34122 4.1962C7.35056 4.15428 7.36226 4.12248 7.36458 4.12248ZM7.75838 4.50407C7.76421 4.50264 7.77124 4.51563 7.80277 4.57346C7.86938 4.6963 7.9208 4.8611 7.93367 4.99408L7.93598 5.023L7.77592 5.09961C7.48962 5.23692 7.22555 5.3728 7.04675 5.47396C6.99652 5.50288 6.90888 5.55491 6.85163 5.58962C6.79437 5.62573 6.74763 5.6532 6.74763 5.65176C6.74763 5.65032 6.78385 5.61708 6.82825 5.57659C7.17765 5.26295 7.48028 4.91891 7.70696 4.57491C7.73151 4.53876 7.75372 4.50551 7.75603 4.50407L7.75838 4.50407V4.50407ZM7.57727 4.559C7.58195 4.56478 7.44874 4.75124 7.3576 4.86542C7.13208 5.15019 6.90889 5.3728 6.63195 5.58962C6.5969 5.61708 6.56535 5.64164 6.56184 5.64454C6.55365 5.65032 6.56417 5.63586 6.6857 5.47252C6.76283 5.36989 6.82124 5.28317 6.88785 5.17622C6.93225 5.10541 6.94043 5.09528 7.00471 5.03888C7.17648 4.88567 7.57259 4.55321 7.57727 4.559Z" fill="#011C26"/>
<path d="M2.51745 10.5442C2.4959 10.5442 2.47434 10.5467 2.45297 10.5467C2.01759 10.5754 1.72395 10.8124 1.55226 11.2753C1.40542 11.6939 1.42145 12.2411 1.55391 12.6623C1.70794 13.0738 1.95683 13.291 2.37226 13.373C2.46016 13.3908 2.5191 13.4505 2.68934 13.6964L2.89882 14H3.27873L3.02611 13.685C2.88647 13.5122 2.77352 13.3618 2.77352 13.3486C2.77352 13.3354 2.82694 13.3065 2.8916 13.2821C3.10477 13.2023 3.28179 12.9986 3.40562 12.6864C3.50584 12.4357 3.52022 12.3581 3.53459 12.0462C3.57218 11.1177 3.17644 10.5373 2.51744 10.5439L2.51745 10.5442V10.5442ZM2.85054 12.9722C2.66572 13.0829 2.39734 13.105 2.22215 13.0255C2.04102 12.9432 1.86565 12.7105 1.78677 12.4471C1.69909 12.159 1.71161 11.6276 1.81183 11.3883C1.97304 11.0072 2.18622 10.832 2.49774 10.832C2.95979 10.832 3.22265 11.182 3.25695 11.84C3.28406 12.3892 3.13538 12.8012 2.85074 12.972L2.85054 12.9722V12.9722ZM9.41343 11.3372C9.25407 11.3372 9.13209 11.417 9.04993 11.5742L8.98544 11.6987V11.3751H8.70965V13.3159H8.98527V12.6955C8.98527 12.1283 8.99099 12.062 9.05507 11.9068C9.14338 11.6939 9.29533 11.5877 9.44219 11.6385L9.54075 11.6741V11.3378H9.41343V11.3372V11.3372ZM7.79314 11.3194C7.73912 11.3194 7.68182 11.3283 7.62476 11.3439C7.25571 11.4632 7.04768 11.9002 7.06041 12.3498C7.06041 12.7263 7.11954 12.9145 7.2664 13.1119C7.56726 13.4172 7.83935 13.4416 8.20653 13.2778C8.26917 13.2448 8.33734 13.2067 8.33734 13.2067V12.9013L8.20653 12.9852C7.90937 13.1452 7.68553 13.1452 7.50623 12.9567C7.39188 12.8127 7.34154 12.6399 7.31835 12.4428H8.43037V12.1811C8.43037 11.6477 8.1708 11.3108 7.79292 11.3194H7.79314ZM7.3434 12.1705C7.3434 12.1705 7.38448 11.8377 7.53685 11.7071C7.61019 11.6431 7.69436 11.6121 7.77671 11.6121C7.85927 11.6121 7.94161 11.6451 8.00959 11.7094C8.14925 11.8423 8.17265 12.1679 8.17265 12.1679H7.34341V12.1705H7.3434ZM0.694467 11.8204C0.395474 11.5964 0.262809 11.4348 0.279031 11.2443C0.325434 10.7171 0.85199 10.79 1.14359 10.9895L1.14566 10.6349C1.14566 10.6349 0.984445 10.5485 0.753408 10.5439C0.398958 10.5373 0.169777 10.6811 0.0623882 10.9737C-0.0953428 11.4056 0.0443196 11.7312 0.549104 12.0945C0.832491 12.2985 0.95775 12.4756 0.95775 12.6686C0.95775 13.0675 0.56901 13.2067 0.167949 12.9564C0.0854095 12.9056 0.0155784 12.8632 0.0118851 12.8632C-0.00249971 12.9763 0.00491524 13.2468 0.00491524 13.2468C0.00491524 13.2468 0.128138 13.3108 0.312943 13.355C0.771287 13.468 1.18839 13.2021 1.22781 12.7702C1.26211 12.3648 1.1436 12.1522 0.694486 11.8201L0.694467 11.8204V11.8204ZM11.8543 11.3149C11.8005 11.3149 11.7434 11.324 11.6839 11.3395C11.3153 11.4589 11.1076 11.8959 11.1218 12.3455C11.1218 12.7215 11.1807 12.9079 11.3276 13.105C11.6284 13.4107 11.9005 13.4353 12.2696 13.2712C12.332 13.2382 12.4 13.2006 12.4 13.2006V12.8948L12.2694 12.9791C11.9716 13.1386 11.7477 13.1386 11.5691 12.9501C11.4541 12.8063 11.4042 12.6356 11.381 12.4362H12.4912V12.1745C12.4912 11.6436 12.2316 11.3065 11.8537 11.3154L11.8543 11.3149V11.3149ZM11.4046 12.1659C11.4046 12.1659 11.4461 11.8336 11.5982 11.7005C11.6713 11.6362 11.7555 11.6052 11.8379 11.6052C11.92 11.6052 12.0028 11.6383 12.0708 11.7028C12.2104 11.8356 12.2339 12.1636 12.2339 12.1636H11.4048L11.4046 12.1659V12.1659ZM6.34946 11.8247C6.05046 11.6012 5.9182 11.4391 5.93422 11.2486C5.98062 10.7212 6.50719 10.7944 6.79878 10.9938L6.80085 10.6392C6.80085 10.6392 6.63963 10.5528 6.4086 10.5487C6.05415 10.5421 5.82496 10.6859 5.71738 10.9785C5.55986 11.4104 5.70135 11.7361 6.20448 12.0993C6.48748 12.3031 6.61274 12.4778 6.61274 12.6709C6.61274 13.0697 6.2242 13.2112 5.82313 12.9587C5.74099 12.9079 5.67117 12.866 5.66706 12.866C5.65268 12.979 5.66009 13.2496 5.66009 13.2496C5.66009 13.2496 5.78186 13.3113 5.96607 13.3578C6.42484 13.4711 6.84213 13.2054 6.88136 12.7735C6.91545 12.3701 6.79717 12.1575 6.34947 11.8252V11.8247H6.34946ZM13.4748 11.3327C13.3155 11.3327 13.1921 11.4127 13.1113 11.5699L13.0468 11.6939V11.3708H12.771V13.3111H13.0466V12.6907C13.0466 12.1237 13.0522 12.0572 13.1165 11.9022C13.2048 11.6896 13.3567 11.5832 13.5036 11.6342L13.6021 11.6698V11.3327H13.4748V11.3327ZM4.15622 11.8135V10.5774H3.87818V13.3154H5.0475V12.992H4.15623V11.8135H4.15622ZM10.5864 12.1989L10.3573 12.9366L10.1369 12.1948L9.91305 11.3728H9.62843C9.81286 12.0196 10.0135 12.6775 10.2158 13.3154C10.3034 13.3179 10.3913 13.3154 10.479 13.3154L10.7885 12.3541L11.1037 11.3731H10.8316C10.8316 11.3731 10.7115 11.7627 10.5862 12.1992L10.5864 12.1989V12.1989ZM4.79694 9.83132C4.84171 9.83132 4.87908 9.81356 4.90989 9.77545C4.94027 9.73784 4.95629 9.69364 4.95629 9.63827C4.95629 9.58288 4.94027 9.53664 4.90989 9.50108C4.87908 9.46553 4.84355 9.44772 4.79898 9.44772C4.75382 9.44772 4.71644 9.46553 4.68604 9.5031C4.65524 9.54072 4.64127 9.58696 4.64127 9.6403C4.64127 9.69619 4.65566 9.74241 4.68604 9.77749C4.7148 9.81303 4.75217 9.83083 4.79694 9.83083V9.83132V9.83132ZM4.69838 9.51633C4.72506 9.48332 4.75752 9.46806 4.79899 9.46806C4.83802 9.46806 4.87047 9.48332 4.89759 9.51633C4.92428 9.54935 4.93866 9.58949 4.93866 9.63827C4.93866 9.68703 4.92428 9.72922 4.89759 9.76223C4.87048 9.79523 4.83802 9.81099 4.79899 9.81099C4.75936 9.81099 4.72712 9.79575 4.70043 9.76223C4.67374 9.72922 4.65936 9.68703 4.65936 9.63827C4.65936 9.58949 4.67168 9.54937 4.69838 9.51633ZM4.76469 9.65606H4.78276C4.79551 9.65606 4.80803 9.67129 4.8187 9.70026L4.84028 9.76019H4.87416L4.84747 9.69362C4.83659 9.66697 4.82592 9.65147 4.81338 9.64712C4.82919 9.64255 4.84171 9.63596 4.85076 9.62273C4.85977 9.61132 4.86307 9.59581 4.86307 9.57828C4.86307 9.55796 4.85793 9.54274 4.84706 9.53155C4.83473 9.51885 4.81502 9.512 4.78954 9.512H4.73248V9.76019H4.76122V9.65604L4.76469 9.65606V9.65606ZM4.76469 9.54072H4.78976C4.80783 9.54072 4.82057 9.54529 4.82755 9.55188C4.83433 9.55849 4.83617 9.56715 4.83617 9.58288C4.83617 9.61158 4.82178 9.62506 4.7951 9.62506H4.76431V9.54072H4.76469V9.54072ZM0.171614 9.63394C0.171614 9.54757 0.169569 9.48332 0.167921 9.44546H0.169569C0.176747 9.49014 0.185582 9.52344 0.19277 9.54553L0.459727 10.2832H0.504501L0.771458 9.53894C0.778664 9.51864 0.785852 9.48813 0.794678 9.4457H0.796723C0.791392 9.51939 0.789545 9.5834 0.789545 9.63445V10.2855H0.880911V9.31768H0.766325L0.520931 9.99086C0.511887 10.0175 0.499359 10.0574 0.483345 10.1103H0.479633C0.474301 10.0841 0.461772 10.0442 0.443912 9.99543L0.204039 9.31537H0.082275V10.2832H0.170165V9.63442L0.171614 9.63394V9.63394ZM1.08115 9.63575H1.16003V10.2385H1.08115V9.63575V9.63575ZM1.12058 9.41472C1.13702 9.41472 1.15098 9.40784 1.16166 9.39441C1.17255 9.38118 1.17974 9.36391 1.17974 9.3436C1.17974 9.32378 1.17439 9.30599 1.16187 9.2928C1.15078 9.27933 1.13661 9.27245 1.12039 9.27245C1.10438 9.27245 1.09001 9.27933 1.07931 9.2928C1.06845 9.30599 1.06125 9.32378 1.06125 9.3436C1.06125 9.36571 1.0668 9.38118 1.07931 9.39441C1.09165 9.40784 1.10437 9.41472 1.12039 9.41472H1.12058ZM1.7223 10.2518V10.1456C1.67917 10.1855 1.63276 10.2053 1.58471 10.2053C1.52722 10.2053 1.48058 10.1809 1.44649 10.1342C1.41262 10.0879 1.39455 10.0236 1.39455 9.94364C1.39455 9.85981 1.41262 9.79322 1.44999 9.74242C1.48592 9.69365 1.53255 9.66926 1.58965 9.66926C1.63626 9.66926 1.68101 9.68707 1.72231 9.72264V9.6096C1.68474 9.58521 1.64182 9.57402 1.59334 9.57402C1.50379 9.57402 1.43399 9.6096 1.38183 9.67821C1.33007 9.74679 1.30337 9.84002 1.30337 9.95256C1.30337 10.0526 1.32657 10.1367 1.37485 10.201C1.42516 10.267 1.48946 10.3006 1.5683 10.3006C1.62927 10.2985 1.67917 10.2827 1.7223 10.2518V10.2518ZM1.94798 9.93041C1.94798 9.85089 1.96236 9.78664 1.98905 9.74241C2.01412 9.70254 2.0445 9.68248 2.08044 9.68248C2.11084 9.68248 2.13239 9.68933 2.14819 9.70483V9.58949C2.13588 9.58289 2.11801 9.58061 2.09481 9.58061C2.06257 9.58061 2.03384 9.59403 2.00857 9.61871C1.98187 9.64485 1.96052 9.68476 1.94799 9.73557H1.94595V9.59406H1.85662V10.285H1.94614V9.93041H1.94798V9.93041ZM2.462 10.2987C2.54621 10.2987 2.61397 10.2652 2.66428 10.1987C2.71437 10.1326 2.73943 10.0437 2.73943 9.93292C2.73943 9.81991 2.71645 9.73353 2.66962 9.66923C2.62321 9.605 2.55872 9.57397 2.47451 9.57397C2.3903 9.57397 2.32254 9.60497 2.27223 9.66492C2.21843 9.731 2.19009 9.82422 2.19009 9.94387C2.19009 10.048 2.21309 10.1344 2.26157 10.1987C2.31166 10.2652 2.378 10.2985 2.462 10.2985V10.2987V10.2987ZM2.33468 9.73581C2.36877 9.69136 2.41355 9.66924 2.46898 9.66924C2.5265 9.66924 2.56961 9.69136 2.60165 9.73581C2.63389 9.78231 2.64992 9.84862 2.64992 9.93726C2.64992 10.0216 2.63554 10.0879 2.60514 10.1324C2.57476 10.1788 2.52998 10.2035 2.47082 10.2035C2.41333 10.2035 2.36877 10.1788 2.33468 10.1324C2.3008 10.0856 2.28457 10.0216 2.28457 9.93726C2.28109 9.85344 2.29896 9.78486 2.33468 9.73581ZM3.13148 10.2385C3.16557 10.201 3.18365 10.1547 3.18365 10.0968C3.18365 10.046 3.16926 10.0038 3.14257 9.97053C3.12079 9.94388 3.08714 9.91973 3.03846 9.89534C2.99532 9.87301 2.96863 9.85317 2.95424 9.83767C2.93988 9.8199 2.93104 9.79782 2.93104 9.76655C2.93104 9.73785 2.94009 9.71575 2.95776 9.69796C2.97583 9.6802 2.99883 9.67157 3.02963 9.67157C3.07789 9.67157 3.11916 9.6873 3.15694 9.72059V9.60982C3.1208 9.5875 3.08158 9.57682 3.0368 9.57682C2.97931 9.57682 2.93084 9.5964 2.8951 9.63421C2.85751 9.67184 2.83966 9.72061 2.83966 9.77799C2.83966 9.8288 2.85197 9.87098 2.87537 9.90196C2.89509 9.92838 2.92879 9.95533 2.97559 9.97944C3.02037 10.0038 3.05076 10.0259 3.06697 10.0437C3.08299 10.0615 3.09018 10.0836 3.09018 10.1098C3.09018 10.1743 3.05446 10.2076 2.98462 10.2076C2.93082 10.2076 2.88258 10.1857 2.83942 10.1415V10.2609C2.87845 10.2899 2.92528 10.3031 2.97702 10.3031C3.04336 10.2988 3.0953 10.2787 3.13104 10.2388L3.13148 10.2385V10.2385ZM3.55781 9.57399C3.47359 9.57399 3.40584 9.605 3.35552 9.66494C3.30213 9.73102 3.27338 9.82424 3.27338 9.94389C3.27338 10.048 3.2966 10.1344 3.34485 10.1987C3.39516 10.2652 3.46128 10.2985 3.54549 10.2985C3.63173 10.2985 3.69746 10.265 3.74777 10.1984C3.79808 10.1324 3.82313 10.0435 3.82313 9.9327C3.82313 9.81965 3.79972 9.73329 3.7533 9.66902C3.70486 9.60474 3.64035 9.57374 3.55821 9.57374L3.55781 9.57399V9.57399ZM3.73154 9.93728C3.73154 10.0216 3.71716 10.0879 3.68677 10.1324C3.65637 10.1789 3.6116 10.2035 3.55245 10.2035C3.49493 10.2035 3.45038 10.1788 3.41628 10.1324C3.38241 10.0856 3.36619 10.0216 3.36619 9.93728C3.36619 9.84836 3.38407 9.77979 3.42 9.73353C3.45387 9.68933 3.49866 9.66697 3.55431 9.66697C3.60974 9.66697 3.65432 9.68931 3.68654 9.73353C3.7153 9.78229 3.73133 9.84861 3.73133 9.93728H3.73154V9.93728ZM3.97346 10.283H4.06279V9.68477H4.1936V9.59178H4.06278V9.48509C4.06278 9.38807 4.09316 9.33929 4.15602 9.33929C4.17717 9.33929 4.19873 9.34589 4.21476 9.35707V9.25726C4.19873 9.24836 4.17717 9.24634 4.15025 9.24634C4.102 9.24634 4.06258 9.26413 4.03032 9.30171C3.99274 9.34591 3.97283 9.40332 3.97283 9.48108V9.59438H3.87834V9.68735H3.97283V10.2833L3.97346 10.283V10.283ZM4.34042 10.0945C4.34042 10.2297 4.3887 10.2985 4.48726 10.2985C4.523 10.2985 4.5499 10.2914 4.57146 10.2756V10.1806C4.55504 10.1959 4.53552 10.203 4.51397 10.203C4.48359 10.203 4.46223 10.1941 4.44969 10.174C4.43695 10.1542 4.42977 10.1207 4.42977 10.0744V9.68451H4.57145V9.59153H4.42977V9.38781C4.39897 9.40101 4.36879 9.4122 4.34022 9.42335V9.59151H4.24371V9.6845H4.34022V10.0943L4.34042 10.0945V10.0945ZM13.9513 11.3682C13.9209 11.3327 13.8849 11.3149 13.8404 11.3149C13.7952 11.3149 13.7578 11.3327 13.7274 11.3708C13.697 11.4081 13.6826 11.4546 13.6826 11.508C13.6826 11.5633 13.697 11.6096 13.7272 11.6451C13.7576 11.6807 13.7949 11.6985 13.8401 11.6985C13.8847 11.6985 13.9223 11.6807 13.9531 11.6431C13.9833 11.605 13.9993 11.561 13.9993 11.5059C13.9977 11.45 13.9814 11.4038 13.951 11.3682L13.9513 11.3682V11.3682ZM13.9369 11.6299C13.9102 11.6629 13.8777 11.6781 13.8383 11.6781C13.7993 11.6781 13.7669 11.6629 13.7397 11.6299C13.7131 11.5964 13.6987 11.5544 13.6987 11.5054C13.6987 11.4571 13.711 11.417 13.7381 11.3835C13.7648 11.3505 13.797 11.3352 13.8383 11.3352C13.8773 11.3352 13.9098 11.3505 13.9369 11.3835C13.9636 11.417 13.9779 11.4571 13.9779 11.5054C13.9779 11.5567 13.9656 11.5964 13.9369 11.6299V11.6299ZM13.8564 11.5168C13.8724 11.5123 13.8851 11.5034 13.894 11.4925C13.903 11.481 13.9063 11.4655 13.9063 11.4478C13.9063 11.4279 13.9012 11.4122 13.8903 11.4013C13.878 11.3886 13.858 11.3817 13.8328 11.3817H13.7757V11.6296H13.8045V11.5255H13.8223C13.8347 11.5255 13.847 11.5407 13.858 11.5697L13.8794 11.6294H13.9135L13.8868 11.5628C13.8776 11.5338 13.8669 11.5206 13.856 11.5163L13.8564 11.5168V11.5168ZM13.8367 11.4945H13.8059V11.4107H13.8311C13.849 11.4107 13.8615 11.4147 13.8687 11.4216C13.8759 11.4282 13.8775 11.4368 13.8775 11.4526C13.8775 11.4813 13.8632 11.4945 13.8365 11.4945L13.8367 11.4945ZM8.84048 9.56308H8.86554V9.31489H8.93185V9.28389H8.77415V9.31489H8.8405V9.56308H8.84048V9.56308ZM8.99244 9.37662C8.99244 9.35247 8.99244 9.33266 8.991 9.32151C8.99265 9.3347 8.99634 9.34361 8.99799 9.35021L9.07501 9.56308H9.08733L9.16453 9.34816C9.1666 9.34156 9.16825 9.33292 9.17173 9.32151C9.17008 9.34361 9.17008 9.36135 9.17008 9.37484V9.56284H9.19679V9.28389H9.16453L9.09473 9.47646C9.09308 9.48333 9.08751 9.49677 9.08404 9.51203H9.08198C9.08054 9.50312 9.07686 9.49424 9.07172 9.47902L9.00189 9.28392H8.96576V9.56335H8.991V9.37689L8.99244 9.37662V9.37662Z" fill="#011C26"/>
<defs>
<linearGradient id="paint0_linear" x1="6.20154" y1="8.60452" x2="6.81562" y2="8.31118" gradientUnits="userSpaceOnUse">
<stop stop-color="#011C26"/>
<stop offset="1" stop-color="#EDEDEE"/>
</linearGradient>
</defs>
</svg>
